HIERARCHY
ROOT Spine
{
    OFFSET 0.0 0.0 -0.0
    CHANNELS 6 Xposition Yposition Zposition Zrotation Xrotation Yrotation
    JOINT ShoulderCenter
    {
        OFFSET 0.0 32.94481658935547 0.0
        CHANNELS 3 Zrotation Xrotation Yrotation
        JOINT LeftShoulder
        {
            OFFSET 18.95941162109375 0.0 0.0
            CHANNELS 3 Zrotation Xrotation Yrotation
            JOINT LeftElbow
            {
                OFFSET 28.856807708740234 0.0 0.0
                CHANNELS 3 Zrotation Xrotation Yrotation
                JOINT LeftHand
                {
                    OFFSET 32.404029846191406 0.0 0.0
                    CHANNELS 3 Zrotation Xrotation Yrotation
                    End Site
                    {
                        OFFSET 12.961610794067383 0.0 0.0
                    }
                }
            }
        }
        JOINT RightShoulder
        {
            OFFSET -18.95941162109375 0.0 0.0
            CHANNELS 3 Zrotation Xrotation Yrotation
            JOINT RightElbow
            {
                OFFSET -28.856807708740234 0.0 0.0
                CHANNELS 3 Zrotation Xrotation Yrotation
                JOINT RightHand
                {
                    OFFSET -32.404029846191406 0.0 0.0
                    CHANNELS 3 Zrotation Xrotation Yrotation
                    End Site
                    {
                        OFFSET -12.961610794067383 0.0 0.0
                    }
                }
            }
        }
        End Site
        {
            OFFSET 0.0 13.177925109863281 0.0
        }
    }
    JOINT LeftHip
    {
        OFFSET 15.685665158229533 -15.685665158229533 0.0
        CHANNELS 3 Zrotation Xrotation Yrotation
        JOINT LeftKnee
        {
            OFFSET 0.0 -41.18231964111328 0.0
            CHANNELS 3 Zrotation Xrotation Yrotation
            JOINT LeftFoot
            {
                OFFSET 0.0 -42.58216857910156 0.0
                CHANNELS 3 Zrotation Xrotation Yrotation
                End Site
                {
                    OFFSET 0.0 0.0 17.032867431640625
                }
            }
        }
    }
    JOINT RightHip
    {
        OFFSET -15.685665158229533 -15.685665158229533 0.0
        CHANNELS 3 Zrotation Xrotation Yrotation
        JOINT RightKnee
        {
            OFFSET 0.0 -41.18231964111328 0.0
            CHANNELS 3 Zrotation Xrotation Yrotation
            JOINT RightFoot
            {
                OFFSET 0.0 -42.58216857910156 0.0
                CHANNELS 3 Zrotation Xrotation Yrotation
                End Site
                {
                    OFFSET 0.0 0.0 17.032867431640625
                }
            }
        }
    }
}
MOTION
Frames: 7
Frame Time: 0.03333333333333333
76.5 10.199999809265137 -73.5999984741211 23.317709563779548 -16.576359113542974 -127.65025161004593 1.0583979431479023e-06 -1.3674736625868367e-06 -13.428980550267728 136.01469600517567 -5.592360278255751 -117.8233877624084 -1.199444078380473e-07 3.634563027390303e-06 102.73761092363182 3.1805546814635168e-15 0.0 0.0 -92.84184847779956 43.72573550175184 131.47416854141338 1.8193913135731148e-06 -3.7255575554980327e-07 -102.2866645328524 3.975693351829397e-15 2.2069531490250793e-31 6.361109362927035e-15 14.880724586196804 -42.95564978411621 76.66337056495651 20.832019870215696 13.101108666435934 -99.79842080049532 3.975693351829396e-16 5.17254644302753e-34 1.4908850069360235e-16 -13.090550821368861 -47.83015036066119 -65.19559506693129 -18.34087139944432 9.505841818705086 55.64836902056072 -3.975693351829396e-16 2.2414367919785962e-32 -6.4605016967227685e-15
76.9000015258789 9.700000762939453 -74.0 23.271080263764173 -18.967290094739436 -130.7821133094567 3.8962131636202794e-07 -3.937086279507709e-08 -13.3636134159573 139.43178607831544 -3.0844451055879065 -109.55622915056382 -8.129578680026824e-07 2.7842074175621534e-06 98.028664777822 -1.5902773407317588e-15 0.0 0.0 -93.91149134692657 40.32630538456875 129.35033612996088 -2.7639020636395445e-06 3.2063361808675333e-06 -104.33557747761401 -1.033680271475643e-14 0.0 0.0 16.76701594800388 -45.25647250660381 83.95732611257093 24.840084052285768 12.310572101595511 -110.64457105700532 1.9878466759146985e-16 1.5902773407317588e-15 3.4787316828507225e-16 -13.603815072712592 -51.12020908224144 -66.66903324268807 -18.542496652403248 10.780254630648658 48.9252083879034 3.975693351829396e-16 7.951386703658791e-16 -5.2677936911739486e-15
77.5 9.09999942779541 -74.4000015258789 23.886491214827217 -21.39842800661195 -133.41971350495444 9.87627695261066e-07 1.0311205104317698e-06 -12.633074611091791 141.4108148497962 -0.3122831231432249 -103.30803985741174 -2.5531191369027174e-06 8.119211629291641e-07 91.14290813129817 4.770832022195275e-15 2.648343778830095e-31 6.3611093629270335e-15 -95.59520558797209 38.01573251151406 127.52477407119196 4.097997376074992e-06 -1.0391631204351825e-07 -106.08114243145977 3.1805546814635168e-15 1.7655625192200634e-31 6.3611093629270335e-15 20.54339098993799 -48.55888114395555 93.73640457664561 29.281023715464926 11.03030421212391 -120.5350542577123 -6.957463365701442e-16 2.112123130902908e-33 -3.478731682850721e-16 -12.896545056645575 -55.11992747039102 -66.83110764724913 -19.42835317024217 11.837069724285158 44.15407944118559 -3.975693351829396e-16 -6.896728590703373e-34 1.987846675914698e-16
78.0999984741211 8.399999618530273 -74.69999694824219 24.079214237322297 -24.615518060804927 -136.19063176470823 -1.1297585607380164e-06 -1.2246989648281007e-06 -12.097388220094683 138.75152061220123 2.94125335196686 -96.66988714083251 1.9399413756260223e-06 -2.5590041245951793e-06 85.0536328035452 -1.590277340731758e-15 -8.827812596100317e-32 6.361109362927032e-15 -94.27529940271741 37.915223964950584 122.05357501071764 -5.786867687933758e-07 -7.108013025265149e-07 -108.4376820631297 -2.3854160110976376e-15 -3.1805546814635168e-15 -6.620859447075238e-32 25.10590187639181 -52.21547975439014 104.55793596763912 34.20626549665022 9.657528846030749 -131.35664580473426 -6.460501696722768e-16 0.0 0.0 -12.213422504617004 -59.32150981650151 -65.50637104682046 -19.971217747516974 12.623105533300246 39.56379240075929 0.0 0.0 9.93923337957349e-16
78.79999542236328 7.400000095367432 -75.0 24.89840955163416 -27.48677376485593 -138.57179727278506 -1.322090487150907e-06 -3.7017261659201314e-07 -10.933515831441397 137.13253870719518 4.532671050628956 -90.1497487591073 4.061370199971367e-07 1.7715795334231754e-06 83.90692460992844 1.7655625192200634e-31 3.1805546814635168e-15 -6.3611093629270335e-15 -93.74337532566555 37.80239757555856 117.75742246817647 -2.296477650247369e-06 3.459062709604167e-06 -110.51799650640082 -7.951386703658792e-16 2.2069531490250793e-32 -3.1805546814635168e-15 32.79698011523847 -56.12383386162384 116.49006207214853 38.885185833120545 8.899055565246137 -135.34548605536003 2.4848083448933725e-16 1.5902773407317584e-15 -3.4483642953516864e-33 -10.450132254795475 -64.23251904402474 -63.830106184900934 -21.323148502315053 14.041509727219722 37.605064706548454 -1.9878466759146977e-16 5.431173765178906e-33 -3.130858514565649e-15
79.29999542236328 6.0 -75.19999694824219 26.11391300971643 -30.457663299596366 -139.79805034030392 1.139010937700191e-06 1.6781230501677393e-06 -10.649103955890608 134.48201054759699 6.324041986753882 -86.44700111260515 3.5160837225099555e-06 -1.0742764782370312e-06 86.94704157371278 -1.5902773407317584e-15 0.0 0.0 -91.66079207331451 38.318723566560315 111.13508193057586 -1.2429646854685607e-06 8.36928438181834e-08 -113.73398902420388 -8.150171371250262e-15 2.2621269777507063e-31 -3.1805546814635168e-15 39.25581157972132 -60.439066938217174 122.97386561178644 42.12634724937976 10.258114299206545 -129.77396535119354 -1.4908850069360235e-16 1.2931366107568824e-34 -9.93923337957349e-17 -12.12183807345917 -70.00077500224002 -67.90053463258613 -24.479236652673922 15.988166499505766 40.19834347691497 -9.93923337957349e-17 -1.2500320570649864e-33 1.441188840038156e-15
79.9000015258789 4.400000095367432 -75.30000305175781 27.593095315868215 -33.57551993122196 -141.57063434903196 -3.019831333066779e-06 -4.606697040791363e-06 -7.342278194850868 128.9342236829974 6.014732581125053 -82.01225921681753 -2.435382749390329e-06 1.510706017030625e-06 89.46920217803 -2.3854160110976376e-15 3.1805546814635168e-15 -3.1805546814635168e-15 -89.04105341361942 40.66869969195685 103.85752060335355 7.624177138527135e-07 -5.282476554443212e-07 -112.384457268151 1.1927080055488188e-15 -1.5902773407317584e-15 1.6552148617688095e-32 49.488774766266744 -63.75977985415318 133.36425039047464 44.99943020732585 12.972530343891052 -123.37631612493448 -3.975693351829397e-16 -3.4483642953516864e-34 9.939233379573492e-17 -12.292786202039482 -76.67999129201414 -70.53918577258763 -28.722518089914786 18.021413595101393 43.851735084126005 4.969616689786746e-17 3.178960834777336e-34 7.33018461743545e-16
